<mxfile host="Electron" agent="Mozilla/5.0 (X11; Linux x86_64) AppleWebKit/537.36 (KHTML, like Gecko) draw.io/24.7.17 Chrome/128.0.6613.36 Electron/32.0.1 Safari/537.36" version="24.7.17">
  <diagram name="Страница — 1" id="I9Z1L919ukLN-PUytdVg">
    <mxGraphModel dx="5607" dy="2783" grid="1" gridSize="10" guides="1" tooltips="1" connect="1" arrows="1" fold="1" page="1" pageScale="1" pageWidth="827" pageHeight="1169" math="0" shadow="0">
      <root>
        <mxCell id="0" />
        <mxCell id="1" parent="0" />
        <mxCell id="OZ5fW6hErYmCuCrI8Dng-1" value="&lt;font style=&quot;font-size: 16px;&quot;&gt;Actor&lt;/font&gt;" style="shape=umlActor;verticalLabelPosition=bottom;verticalAlign=top;html=1;outlineConnect=0;" parent="1" vertex="1">
          <mxGeometry x="-65" y="660" width="30" height="60" as="geometry" />
        </mxCell>
        <mxCell id="XvAhgUPR3jtQ_a_zYUv5-78" value="&lt;span style=&quot;font-size: 16px;&quot;&gt;Guest&lt;/span&gt;" style="shape=umlActor;verticalLabelPosition=bottom;verticalAlign=top;html=1;outlineConnect=0;" vertex="1" parent="1">
          <mxGeometry x="220" y="660" width="30" height="60" as="geometry" />
        </mxCell>
        <mxCell id="XvAhgUPR3jtQ_a_zYUv5-80" value="" style="endArrow=open;endSize=12;dashed=1;html=1;rounded=0;" edge="1" parent="1" source="OZ5fW6hErYmCuCrI8Dng-1" target="XvAhgUPR3jtQ_a_zYUv5-78">
          <mxGeometry width="160" relative="1" as="geometry">
            <mxPoint x="290" y="450" as="sourcePoint" />
            <mxPoint x="450" y="450" as="targetPoint" />
          </mxGeometry>
        </mxCell>
        <mxCell id="XvAhgUPR3jtQ_a_zYUv5-85" value="" style="endArrow=none;startArrow=none;endFill=0;startFill=0;html=1;rounded=0;" edge="1" parent="1" source="XvAhgUPR3jtQ_a_zYUv5-78" target="XvAhgUPR3jtQ_a_zYUv5-67">
          <mxGeometry width="160" relative="1" as="geometry">
            <mxPoint x="170" y="770" as="sourcePoint" />
            <mxPoint x="330" y="770" as="targetPoint" />
          </mxGeometry>
        </mxCell>
        <mxCell id="XvAhgUPR3jtQ_a_zYUv5-86" value="" style="endArrow=none;startArrow=none;endFill=0;startFill=0;html=1;rounded=0;" edge="1" parent="1" source="XvAhgUPR3jtQ_a_zYUv5-78" target="OZ5fW6hErYmCuCrI8Dng-46">
          <mxGeometry width="160" relative="1" as="geometry">
            <mxPoint x="140" y="578" as="sourcePoint" />
            <mxPoint x="-254" y="923" as="targetPoint" />
          </mxGeometry>
        </mxCell>
        <mxCell id="XvAhgUPR3jtQ_a_zYUv5-87" value="" style="endArrow=none;startArrow=none;endFill=0;startFill=0;html=1;rounded=0;" edge="1" parent="1" source="OZ5fW6hErYmCuCrI8Dng-1" target="OZ5fW6hErYmCuCrI8Dng-50">
          <mxGeometry width="160" relative="1" as="geometry">
            <mxPoint x="140" y="591" as="sourcePoint" />
            <mxPoint x="-118" y="1033" as="targetPoint" />
          </mxGeometry>
        </mxCell>
        <mxCell id="XvAhgUPR3jtQ_a_zYUv5-88" value="" style="endArrow=none;startArrow=none;endFill=0;startFill=0;html=1;rounded=0;" edge="1" parent="1" source="XvAhgUPR3jtQ_a_zYUv5-78" target="OZ5fW6hErYmCuCrI8Dng-10">
          <mxGeometry width="160" relative="1" as="geometry">
            <mxPoint x="480" y="830" as="sourcePoint" />
            <mxPoint x="460" y="1140" as="targetPoint" />
          </mxGeometry>
        </mxCell>
        <mxCell id="XvAhgUPR3jtQ_a_zYUv5-92" value="" style="endArrow=none;startArrow=none;endFill=0;startFill=0;html=1;rounded=0;" edge="1" parent="1" source="XvAhgUPR3jtQ_a_zYUv5-78" target="OZ5fW6hErYmCuCrI8Dng-7">
          <mxGeometry width="160" relative="1" as="geometry">
            <mxPoint x="260" y="728" as="sourcePoint" />
            <mxPoint x="370" y="932" as="targetPoint" />
          </mxGeometry>
        </mxCell>
        <mxCell id="XvAhgUPR3jtQ_a_zYUv5-93" value="" style="endArrow=none;startArrow=none;endFill=0;startFill=0;html=1;rounded=0;" edge="1" parent="1" source="XvAhgUPR3jtQ_a_zYUv5-78" target="OZ5fW6hErYmCuCrI8Dng-91">
          <mxGeometry width="160" relative="1" as="geometry">
            <mxPoint x="260" y="711" as="sourcePoint" />
            <mxPoint x="550" y="930" as="targetPoint" />
          </mxGeometry>
        </mxCell>
        <mxCell id="XvAhgUPR3jtQ_a_zYUv5-95" value="" style="group" vertex="1" connectable="0" parent="1">
          <mxGeometry x="210" y="780" width="530" height="340" as="geometry" />
        </mxCell>
        <mxCell id="OZ5fW6hErYmCuCrI8Dng-7" value="Get coordinates of location name" style="ellipse;whiteSpace=wrap;html=1;" parent="XvAhgUPR3jtQ_a_zYUv5-95" vertex="1">
          <mxGeometry x="330" y="130" width="120" height="80" as="geometry" />
        </mxCell>
        <mxCell id="OZ5fW6hErYmCuCrI8Dng-10" value="Get Weather Forecast" style="ellipse;whiteSpace=wrap;html=1;" parent="XvAhgUPR3jtQ_a_zYUv5-95" vertex="1">
          <mxGeometry x="130" y="130" width="120" height="80" as="geometry" />
        </mxCell>
        <mxCell id="XvAhgUPR3jtQ_a_zYUv5-94" value="Forecast" style="shape=umlFrame;whiteSpace=wrap;html=1;pointerEvents=0;width=110;height=60;" vertex="1" parent="XvAhgUPR3jtQ_a_zYUv5-95">
          <mxGeometry width="530" height="340" as="geometry" />
        </mxCell>
        <mxCell id="XvAhgUPR3jtQ_a_zYUv5-96" value="" style="group" vertex="1" connectable="0" parent="1">
          <mxGeometry x="-430" y="780" width="530" height="340" as="geometry" />
        </mxCell>
        <mxCell id="OZ5fW6hErYmCuCrI8Dng-46" value="Authorization" style="ellipse;whiteSpace=wrap;html=1;" parent="XvAhgUPR3jtQ_a_zYUv5-96" vertex="1">
          <mxGeometry x="350" y="240" width="120" height="80" as="geometry" />
        </mxCell>
        <mxCell id="OZ5fW6hErYmCuCrI8Dng-50" value="Log out" style="ellipse;whiteSpace=wrap;html=1;" parent="XvAhgUPR3jtQ_a_zYUv5-96" vertex="1">
          <mxGeometry x="100" y="60" width="120" height="80" as="geometry" />
        </mxCell>
        <mxCell id="XvAhgUPR3jtQ_a_zYUv5-67" value="Registration" style="ellipse;whiteSpace=wrap;html=1;" vertex="1" parent="XvAhgUPR3jtQ_a_zYUv5-96">
          <mxGeometry x="240" y="130" width="120" height="80" as="geometry" />
        </mxCell>
        <mxCell id="XvAhgUPR3jtQ_a_zYUv5-71" value="Account" style="shape=umlFrame;whiteSpace=wrap;html=1;pointerEvents=0;width=110;height=60;" vertex="1" parent="XvAhgUPR3jtQ_a_zYUv5-96">
          <mxGeometry width="530" height="340" as="geometry" />
        </mxCell>
        <mxCell id="XvAhgUPR3jtQ_a_zYUv5-111" value="" style="endArrow=none;startArrow=none;endFill=0;startFill=0;html=1;rounded=0;" edge="1" parent="1" source="OZ5fW6hErYmCuCrI8Dng-1" target="OZ5fW6hErYmCuCrI8Dng-5">
          <mxGeometry width="160" relative="1" as="geometry">
            <mxPoint x="260" y="685" as="sourcePoint" />
            <mxPoint x="-21.226726473416647" y="589.2935426569582" as="targetPoint" />
          </mxGeometry>
        </mxCell>
        <mxCell id="XvAhgUPR3jtQ_a_zYUv5-112" value="" style="group" vertex="1" connectable="0" parent="1">
          <mxGeometry x="-430" y="290" width="530" height="340" as="geometry" />
        </mxCell>
        <mxCell id="OZ5fW6hErYmCuCrI8Dng-5" value="Add favourites location" style="ellipse;whiteSpace=wrap;html=1;" parent="XvAhgUPR3jtQ_a_zYUv5-112" vertex="1">
          <mxGeometry x="130" y="210" width="120" height="80" as="geometry" />
        </mxCell>
        <mxCell id="OZ5fW6hErYmCuCrI8Dng-6" value="Delete favourites location" style="ellipse;whiteSpace=wrap;html=1;" parent="XvAhgUPR3jtQ_a_zYUv5-112" vertex="1">
          <mxGeometry x="130" y="50" width="120" height="80" as="geometry" />
        </mxCell>
        <mxCell id="XvAhgUPR3jtQ_a_zYUv5-102" value="Forecast" style="shape=umlFrame;whiteSpace=wrap;html=1;pointerEvents=0;width=110;height=60;" vertex="1" parent="XvAhgUPR3jtQ_a_zYUv5-112">
          <mxGeometry width="530" height="340" as="geometry" />
        </mxCell>
        <mxCell id="XvAhgUPR3jtQ_a_zYUv5-107" value="List favourites location" style="ellipse;whiteSpace=wrap;html=1;" vertex="1" parent="XvAhgUPR3jtQ_a_zYUv5-112">
          <mxGeometry x="360" y="50" width="120" height="80" as="geometry" />
        </mxCell>
        <mxCell id="XvAhgUPR3jtQ_a_zYUv5-114" value="" style="group" vertex="1" connectable="0" parent="1">
          <mxGeometry x="320" y="290" width="390" height="210" as="geometry" />
        </mxCell>
        <mxCell id="OZ5fW6hErYmCuCrI8Dng-75" value="Search weather by image" style="ellipse;whiteSpace=wrap;html=1;" parent="XvAhgUPR3jtQ_a_zYUv5-114" vertex="1">
          <mxGeometry x="230" y="70" width="120" height="80" as="geometry" />
        </mxCell>
        <mxCell id="OZ5fW6hErYmCuCrI8Dng-91" value="Recognize weather by TensorFlow Lite" style="ellipse;whiteSpace=wrap;html=1;" parent="XvAhgUPR3jtQ_a_zYUv5-114" vertex="1">
          <mxGeometry x="30" y="70" width="120" height="80" as="geometry" />
        </mxCell>
        <mxCell id="OZ5fW6hErYmCuCrI8Dng-92" value="" style="endArrow=none;html=1;rounded=0;dashed=1;startArrow=classic;startFill=1;endFill=0;" parent="XvAhgUPR3jtQ_a_zYUv5-114" source="OZ5fW6hErYmCuCrI8Dng-91" target="OZ5fW6hErYmCuCrI8Dng-75" edge="1">
          <mxGeometry width="50" height="50" relative="1" as="geometry">
            <mxPoint x="332" y="678" as="sourcePoint" />
            <mxPoint x="378" y="722" as="targetPoint" />
            <Array as="points" />
          </mxGeometry>
        </mxCell>
        <mxCell id="OZ5fW6hErYmCuCrI8Dng-93" value="&lt;span style=&quot;font-size: 11px;&quot;&gt;&amp;lt;&amp;lt;Includes&amp;gt;&amp;gt;&lt;/span&gt;" style="edgeLabel;html=1;align=center;verticalAlign=middle;resizable=0;points=[];fontSize=11;" parent="OZ5fW6hErYmCuCrI8Dng-92" vertex="1" connectable="0">
          <mxGeometry x="-0.0333" y="3" relative="1" as="geometry">
            <mxPoint as="offset" />
          </mxGeometry>
        </mxCell>
        <mxCell id="XvAhgUPR3jtQ_a_zYUv5-113" value="Detection" style="shape=umlFrame;whiteSpace=wrap;html=1;pointerEvents=0;" vertex="1" parent="XvAhgUPR3jtQ_a_zYUv5-114">
          <mxGeometry width="390" height="210" as="geometry" />
        </mxCell>
        <mxCell id="XvAhgUPR3jtQ_a_zYUv5-115" value="Data" style="shape=umlFrame;whiteSpace=wrap;html=1;pointerEvents=0;fillColor=none;fontColor=#ffffff;strokeColor=#3700CC;" vertex="1" parent="1">
          <mxGeometry x="1013" y="220" width="1110" height="247" as="geometry" />
        </mxCell>
        <mxCell id="XvAhgUPR3jtQ_a_zYUv5-116" value="Domain" style="shape=umlFrame;whiteSpace=wrap;html=1;pointerEvents=0;fillColor=none;fontColor=#ffffff;strokeColor=#006EAF;swimlaneFillColor=none;width=80;height=30;" vertex="1" parent="1">
          <mxGeometry x="1010" y="500" width="1110" height="500" as="geometry" />
        </mxCell>
        <mxCell id="XvAhgUPR3jtQ_a_zYUv5-117" value="Presentation" style="shape=umlFrame;whiteSpace=wrap;html=1;pointerEvents=0;fillColor=none;fontColor=#ffffff;strokeColor=#005700;swimlaneFillColor=none;width=107;height=30;" vertex="1" parent="1">
          <mxGeometry x="1013" y="1040" width="1107" height="240" as="geometry" />
        </mxCell>
        <mxCell id="XvAhgUPR3jtQ_a_zYUv5-118" value="LogIn" style="rounded=0;whiteSpace=wrap;html=1;" vertex="1" parent="1">
          <mxGeometry x="1130" y="1080" width="80" height="170" as="geometry" />
        </mxCell>
        <mxCell id="XvAhgUPR3jtQ_a_zYUv5-119" value="Authorization" style="ellipse;whiteSpace=wrap;html=1;" vertex="1" parent="1">
          <mxGeometry x="1110" y="810" width="120" height="80" as="geometry" />
        </mxCell>
        <mxCell id="XvAhgUPR3jtQ_a_zYUv5-120" value="Log out" style="ellipse;whiteSpace=wrap;html=1;" vertex="1" parent="1">
          <mxGeometry x="1210" y="890" width="120" height="80" as="geometry" />
        </mxCell>
        <mxCell id="XvAhgUPR3jtQ_a_zYUv5-121" value="Registration" style="ellipse;whiteSpace=wrap;html=1;" vertex="1" parent="1">
          <mxGeometry x="1020" y="664" width="120" height="80" as="geometry" />
        </mxCell>
        <mxCell id="XvAhgUPR3jtQ_a_zYUv5-122" value="Use" style="endArrow=open;endSize=12;dashed=1;html=1;rounded=0;" edge="1" parent="1" source="XvAhgUPR3jtQ_a_zYUv5-118" target="XvAhgUPR3jtQ_a_zYUv5-121">
          <mxGeometry width="160" relative="1" as="geometry">
            <mxPoint x="880" y="910" as="sourcePoint" />
            <mxPoint x="1040" y="910" as="targetPoint" />
          </mxGeometry>
        </mxCell>
        <mxCell id="XvAhgUPR3jtQ_a_zYUv5-123" value="Use" style="endArrow=open;endSize=12;dashed=1;html=1;rounded=0;" edge="1" parent="1" source="XvAhgUPR3jtQ_a_zYUv5-118" target="XvAhgUPR3jtQ_a_zYUv5-119">
          <mxGeometry width="160" relative="1" as="geometry">
            <mxPoint x="1171" y="1090" as="sourcePoint" />
            <mxPoint x="1154" y="940" as="targetPoint" />
          </mxGeometry>
        </mxCell>
        <mxCell id="XvAhgUPR3jtQ_a_zYUv5-124" value="AI Detection" style="rounded=0;whiteSpace=wrap;html=1;" vertex="1" parent="1">
          <mxGeometry x="1960" y="1075" width="80" height="170" as="geometry" />
        </mxCell>
        <mxCell id="XvAhgUPR3jtQ_a_zYUv5-125" value="Search weather by image" style="ellipse;whiteSpace=wrap;html=1;" vertex="1" parent="1">
          <mxGeometry x="1990" y="655" width="120" height="80" as="geometry" />
        </mxCell>
        <mxCell id="XvAhgUPR3jtQ_a_zYUv5-126" value="Recognize weather by TensorFlow Lite" style="ellipse;whiteSpace=wrap;html=1;" vertex="1" parent="1">
          <mxGeometry x="1900" y="830" width="120" height="80" as="geometry" />
        </mxCell>
        <mxCell id="XvAhgUPR3jtQ_a_zYUv5-127" value="Use" style="endArrow=open;endSize=12;dashed=1;html=1;rounded=0;" edge="1" parent="1" source="XvAhgUPR3jtQ_a_zYUv5-124" target="XvAhgUPR3jtQ_a_zYUv5-126">
          <mxGeometry width="160" relative="1" as="geometry">
            <mxPoint x="1207" y="1090" as="sourcePoint" />
            <mxPoint x="1248" y="959" as="targetPoint" />
          </mxGeometry>
        </mxCell>
        <mxCell id="XvAhgUPR3jtQ_a_zYUv5-128" value="Use" style="endArrow=open;endSize=12;dashed=1;html=1;rounded=0;" edge="1" parent="1" source="XvAhgUPR3jtQ_a_zYUv5-124" target="XvAhgUPR3jtQ_a_zYUv5-125">
          <mxGeometry width="160" relative="1" as="geometry">
            <mxPoint x="1754" y="1085" as="sourcePoint" />
            <mxPoint x="1722" y="979" as="targetPoint" />
          </mxGeometry>
        </mxCell>
        <mxCell id="XvAhgUPR3jtQ_a_zYUv5-129" value="Get coordinates of location name" style="ellipse;whiteSpace=wrap;html=1;" vertex="1" parent="1">
          <mxGeometry x="1580" y="870" width="120" height="80" as="geometry" />
        </mxCell>
        <mxCell id="XvAhgUPR3jtQ_a_zYUv5-130" value="Get Weather Forecast" style="ellipse;whiteSpace=wrap;html=1;" vertex="1" parent="1">
          <mxGeometry x="1740" y="865" width="120" height="80" as="geometry" />
        </mxCell>
        <mxCell id="XvAhgUPR3jtQ_a_zYUv5-135" value="Add favourites location" style="ellipse;whiteSpace=wrap;html=1;" vertex="1" parent="1">
          <mxGeometry x="1360" y="760" width="120" height="80" as="geometry" />
        </mxCell>
        <mxCell id="XvAhgUPR3jtQ_a_zYUv5-136" value="Delete favourites location" style="ellipse;whiteSpace=wrap;html=1;" vertex="1" parent="1">
          <mxGeometry x="1427" y="840" width="120" height="80" as="geometry" />
        </mxCell>
        <mxCell id="XvAhgUPR3jtQ_a_zYUv5-142" value="List favourites location" style="ellipse;whiteSpace=wrap;html=1;" vertex="1" parent="1">
          <mxGeometry x="1310" y="670" width="120" height="80" as="geometry" />
        </mxCell>
        <mxCell id="XvAhgUPR3jtQ_a_zYUv5-145" value="" style="endArrow=none;startArrow=none;endFill=0;startFill=0;html=1;rounded=0;" edge="1" parent="1" source="OZ5fW6hErYmCuCrI8Dng-1" target="OZ5fW6hErYmCuCrI8Dng-6">
          <mxGeometry width="160" relative="1" as="geometry">
            <mxPoint x="-31" y="670" as="sourcePoint" />
            <mxPoint x="-11.226726473416647" y="599.2935426569582" as="targetPoint" />
          </mxGeometry>
        </mxCell>
        <mxCell id="XvAhgUPR3jtQ_a_zYUv5-146" value="" style="endArrow=none;startArrow=none;endFill=0;startFill=0;html=1;rounded=0;" edge="1" parent="1" source="OZ5fW6hErYmCuCrI8Dng-1" target="XvAhgUPR3jtQ_a_zYUv5-107">
          <mxGeometry width="160" relative="1" as="geometry">
            <mxPoint x="-21" y="680" as="sourcePoint" />
            <mxPoint x="-1.2267264734166474" y="609.2935426569582" as="targetPoint" />
          </mxGeometry>
        </mxCell>
        <mxCell id="XvAhgUPR3jtQ_a_zYUv5-147" value="Favourites location list" style="rounded=0;whiteSpace=wrap;html=1;" vertex="1" parent="1">
          <mxGeometry x="1500" y="1060" width="80" height="170" as="geometry" />
        </mxCell>
        <mxCell id="XvAhgUPR3jtQ_a_zYUv5-148" value="Use" style="endArrow=open;endSize=12;dashed=1;html=1;rounded=0;" edge="1" parent="1" source="XvAhgUPR3jtQ_a_zYUv5-155" target="XvAhgUPR3jtQ_a_zYUv5-142">
          <mxGeometry width="160" relative="1" as="geometry">
            <mxPoint x="1207" y="1090" as="sourcePoint" />
            <mxPoint x="1248" y="959" as="targetPoint" />
          </mxGeometry>
        </mxCell>
        <mxCell id="XvAhgUPR3jtQ_a_zYUv5-149" value="Use" style="endArrow=open;endSize=12;dashed=1;html=1;rounded=0;" edge="1" parent="1" source="XvAhgUPR3jtQ_a_zYUv5-155" target="XvAhgUPR3jtQ_a_zYUv5-135">
          <mxGeometry width="160" relative="1" as="geometry">
            <mxPoint x="1439" y="1080" as="sourcePoint" />
            <mxPoint x="1314" y="744" as="targetPoint" />
          </mxGeometry>
        </mxCell>
        <mxCell id="XvAhgUPR3jtQ_a_zYUv5-150" value="Use" style="endArrow=open;endSize=12;dashed=1;html=1;rounded=0;" edge="1" parent="1" source="XvAhgUPR3jtQ_a_zYUv5-155" target="XvAhgUPR3jtQ_a_zYUv5-136">
          <mxGeometry width="160" relative="1" as="geometry">
            <mxPoint x="1456" y="1080" as="sourcePoint" />
            <mxPoint x="1417" y="850" as="targetPoint" />
          </mxGeometry>
        </mxCell>
        <mxCell id="XvAhgUPR3jtQ_a_zYUv5-151" value="Favourite location info" style="rounded=0;whiteSpace=wrap;html=1;" vertex="1" parent="1">
          <mxGeometry x="1730" y="1075" width="80" height="170" as="geometry" />
        </mxCell>
        <mxCell id="XvAhgUPR3jtQ_a_zYUv5-152" value="Use" style="endArrow=open;endSize=12;dashed=1;html=1;rounded=0;" edge="1" parent="1" source="XvAhgUPR3jtQ_a_zYUv5-147" target="XvAhgUPR3jtQ_a_zYUv5-130">
          <mxGeometry width="160" relative="1" as="geometry">
            <mxPoint x="1484" y="1080" as="sourcePoint" />
            <mxPoint x="1504" y="955" as="targetPoint" />
          </mxGeometry>
        </mxCell>
        <mxCell id="XvAhgUPR3jtQ_a_zYUv5-153" value="Use" style="endArrow=open;endSize=12;dashed=1;html=1;rounded=0;" edge="1" parent="1" source="XvAhgUPR3jtQ_a_zYUv5-151" target="XvAhgUPR3jtQ_a_zYUv5-130">
          <mxGeometry width="160" relative="1" as="geometry">
            <mxPoint x="1510" y="1131" as="sourcePoint" />
            <mxPoint x="1713" y="961" as="targetPoint" />
          </mxGeometry>
        </mxCell>
        <mxCell id="XvAhgUPR3jtQ_a_zYUv5-154" value="Use" style="endArrow=open;endSize=12;dashed=1;html=1;rounded=0;" edge="1" parent="1" source="XvAhgUPR3jtQ_a_zYUv5-147" target="XvAhgUPR3jtQ_a_zYUv5-129">
          <mxGeometry width="160" relative="1" as="geometry">
            <mxPoint x="1510" y="1136" as="sourcePoint" />
            <mxPoint x="1739" y="969" as="targetPoint" />
          </mxGeometry>
        </mxCell>
        <mxCell id="XvAhgUPR3jtQ_a_zYUv5-155" value="Favourites location list (authorized)" style="rounded=0;whiteSpace=wrap;html=1;" vertex="1" parent="1">
          <mxGeometry x="1350" y="1060" width="80" height="170" as="geometry" />
        </mxCell>
        <mxCell id="XvAhgUPR3jtQ_a_zYUv5-156" value="" style="endArrow=block;dashed=1;endFill=0;endSize=12;html=1;rounded=0;" edge="1" parent="1" source="XvAhgUPR3jtQ_a_zYUv5-155" target="XvAhgUPR3jtQ_a_zYUv5-147">
          <mxGeometry width="160" relative="1" as="geometry">
            <mxPoint x="1450" y="1070" as="sourcePoint" />
            <mxPoint x="1610" y="1070" as="targetPoint" />
          </mxGeometry>
        </mxCell>
        <mxCell id="XvAhgUPR3jtQ_a_zYUv5-157" value="Use" style="endArrow=open;endSize=12;dashed=1;html=1;rounded=0;" edge="1" parent="1" source="XvAhgUPR3jtQ_a_zYUv5-155" target="XvAhgUPR3jtQ_a_zYUv5-120">
          <mxGeometry width="160" relative="1" as="geometry">
            <mxPoint x="1554" y="1070" as="sourcePoint" />
            <mxPoint x="1568" y="760" as="targetPoint" />
          </mxGeometry>
        </mxCell>
        <mxCell id="XvAhgUPR3jtQ_a_zYUv5-158" value="IUserRepository" style="html=1;whiteSpace=wrap;" vertex="1" parent="1">
          <mxGeometry x="1130" y="530" width="110" height="50" as="geometry" />
        </mxCell>
        <mxCell id="XvAhgUPR3jtQ_a_zYUv5-159" value="Use" style="endArrow=open;endSize=12;dashed=1;html=1;rounded=0;" edge="1" parent="1" source="XvAhgUPR3jtQ_a_zYUv5-121" target="XvAhgUPR3jtQ_a_zYUv5-158">
          <mxGeometry width="160" relative="1" as="geometry">
            <mxPoint x="980" y="590" as="sourcePoint" />
            <mxPoint x="1098" y="754" as="targetPoint" />
          </mxGeometry>
        </mxCell>
        <mxCell id="XvAhgUPR3jtQ_a_zYUv5-160" value="Use" style="endArrow=open;endSize=12;dashed=1;html=1;rounded=0;" edge="1" parent="1" source="XvAhgUPR3jtQ_a_zYUv5-119" target="XvAhgUPR3jtQ_a_zYUv5-158">
          <mxGeometry width="160" relative="1" as="geometry">
            <mxPoint x="1177" y="590" as="sourcePoint" />
            <mxPoint x="940" y="680" as="targetPoint" />
          </mxGeometry>
        </mxCell>
        <mxCell id="XvAhgUPR3jtQ_a_zYUv5-161" value="Use" style="endArrow=open;endSize=12;dashed=1;html=1;rounded=0;" edge="1" parent="1" source="XvAhgUPR3jtQ_a_zYUv5-120" target="XvAhgUPR3jtQ_a_zYUv5-158">
          <mxGeometry width="160" relative="1" as="geometry">
            <mxPoint x="1194" y="590" as="sourcePoint" />
            <mxPoint x="950" y="700" as="targetPoint" />
          </mxGeometry>
        </mxCell>
        <mxCell id="XvAhgUPR3jtQ_a_zYUv5-162" value="IFavouriteLocationRepository" style="html=1;whiteSpace=wrap;" vertex="1" parent="1">
          <mxGeometry x="1340" y="540" width="178" height="50" as="geometry" />
        </mxCell>
        <mxCell id="XvAhgUPR3jtQ_a_zYUv5-163" value="Use" style="endArrow=open;endSize=12;dashed=1;html=1;rounded=0;" edge="1" parent="1" source="XvAhgUPR3jtQ_a_zYUv5-142" target="XvAhgUPR3jtQ_a_zYUv5-162">
          <mxGeometry width="160" relative="1" as="geometry">
            <mxPoint x="1201" y="590" as="sourcePoint" />
            <mxPoint x="1410" y="480" as="targetPoint" />
          </mxGeometry>
        </mxCell>
        <mxCell id="XvAhgUPR3jtQ_a_zYUv5-164" value="Use" style="endArrow=open;endSize=12;dashed=1;html=1;rounded=0;" edge="1" parent="1" source="XvAhgUPR3jtQ_a_zYUv5-135" target="XvAhgUPR3jtQ_a_zYUv5-162">
          <mxGeometry width="160" relative="1" as="geometry">
            <mxPoint x="1488" y="590" as="sourcePoint" />
            <mxPoint x="1409" y="685" as="targetPoint" />
          </mxGeometry>
        </mxCell>
        <mxCell id="XvAhgUPR3jtQ_a_zYUv5-165" value="Use" style="endArrow=open;endSize=12;dashed=1;html=1;rounded=0;" edge="1" parent="1" source="XvAhgUPR3jtQ_a_zYUv5-136" target="XvAhgUPR3jtQ_a_zYUv5-162">
          <mxGeometry width="160" relative="1" as="geometry">
            <mxPoint x="1501" y="590" as="sourcePoint" />
            <mxPoint x="1530" y="480" as="targetPoint" />
          </mxGeometry>
        </mxCell>
        <mxCell id="XvAhgUPR3jtQ_a_zYUv5-166" value="ILocationCoorrdinatesRepository" style="html=1;whiteSpace=wrap;" vertex="1" parent="1">
          <mxGeometry x="1552" y="605" width="178" height="50" as="geometry" />
        </mxCell>
        <mxCell id="XvAhgUPR3jtQ_a_zYUv5-167" value="IWeatherForecastRepository" style="html=1;whiteSpace=wrap;" vertex="1" parent="1">
          <mxGeometry x="1682" y="530" width="178" height="50" as="geometry" />
        </mxCell>
        <mxCell id="XvAhgUPR3jtQ_a_zYUv5-168" value="Use" style="endArrow=open;endSize=12;dashed=1;html=1;rounded=0;" edge="1" parent="1" source="XvAhgUPR3jtQ_a_zYUv5-129" target="XvAhgUPR3jtQ_a_zYUv5-166">
          <mxGeometry width="160" relative="1" as="geometry">
            <mxPoint x="2160" y="670" as="sourcePoint" />
            <mxPoint x="1498" y="850" as="targetPoint" />
          </mxGeometry>
        </mxCell>
        <mxCell id="XvAhgUPR3jtQ_a_zYUv5-169" value="Use" style="endArrow=open;endSize=12;dashed=1;html=1;rounded=0;" edge="1" parent="1" source="XvAhgUPR3jtQ_a_zYUv5-130" target="XvAhgUPR3jtQ_a_zYUv5-167">
          <mxGeometry width="160" relative="1" as="geometry">
            <mxPoint x="1650" y="665" as="sourcePoint" />
            <mxPoint x="2170" y="740" as="targetPoint" />
          </mxGeometry>
        </mxCell>
        <mxCell id="XvAhgUPR3jtQ_a_zYUv5-170" value="FirebaseUserRepository" style="html=1;whiteSpace=wrap;" vertex="1" parent="1">
          <mxGeometry x="1120" y="340" width="140" height="50" as="geometry" />
        </mxCell>
        <mxCell id="XvAhgUPR3jtQ_a_zYUv5-171" value="" style="endArrow=block;dashed=1;endFill=0;endSize=12;html=1;rounded=0;" edge="1" parent="1" source="XvAhgUPR3jtQ_a_zYUv5-170" target="XvAhgUPR3jtQ_a_zYUv5-158">
          <mxGeometry width="160" relative="1" as="geometry">
            <mxPoint x="1180" y="430" as="sourcePoint" />
            <mxPoint x="1340" y="430" as="targetPoint" />
          </mxGeometry>
        </mxCell>
        <mxCell id="XvAhgUPR3jtQ_a_zYUv5-172" value="RoomUserRepository" style="html=1;whiteSpace=wrap;" vertex="1" parent="1">
          <mxGeometry x="1359" y="340" width="140" height="50" as="geometry" />
        </mxCell>
        <mxCell id="XvAhgUPR3jtQ_a_zYUv5-174" value="" style="endArrow=block;dashed=1;endFill=0;endSize=12;html=1;rounded=0;" edge="1" parent="1" source="XvAhgUPR3jtQ_a_zYUv5-172" target="XvAhgUPR3jtQ_a_zYUv5-162">
          <mxGeometry width="160" relative="1" as="geometry">
            <mxPoint x="1199" y="400" as="sourcePoint" />
            <mxPoint x="1196" y="540" as="targetPoint" />
          </mxGeometry>
        </mxCell>
        <mxCell id="XvAhgUPR3jtQ_a_zYUv5-175" value="LocalWeatherForecastRepository" style="html=1;whiteSpace=wrap;" vertex="1" parent="1">
          <mxGeometry x="1720" y="240" width="220" height="50" as="geometry" />
        </mxCell>
        <mxCell id="XvAhgUPR3jtQ_a_zYUv5-176" value="RemoteWeatherForecastRepository" style="html=1;whiteSpace=wrap;" vertex="1" parent="1">
          <mxGeometry x="1830" y="300" width="240" height="50" as="geometry" />
        </mxCell>
        <mxCell id="XvAhgUPR3jtQ_a_zYUv5-178" value="" style="endArrow=block;dashed=1;endFill=0;endSize=12;html=1;rounded=0;" edge="1" parent="1" source="XvAhgUPR3jtQ_a_zYUv5-175" target="XvAhgUPR3jtQ_a_zYUv5-167">
          <mxGeometry width="160" relative="1" as="geometry">
            <mxPoint x="1439" y="400" as="sourcePoint" />
            <mxPoint x="1439" y="550" as="targetPoint" />
          </mxGeometry>
        </mxCell>
        <mxCell id="XvAhgUPR3jtQ_a_zYUv5-179" value="" style="endArrow=block;dashed=1;endFill=0;endSize=12;html=1;rounded=0;" edge="1" parent="1" source="XvAhgUPR3jtQ_a_zYUv5-176" target="XvAhgUPR3jtQ_a_zYUv5-167">
          <mxGeometry width="160" relative="1" as="geometry">
            <mxPoint x="1860" y="410" as="sourcePoint" />
            <mxPoint x="1859" y="610" as="targetPoint" />
          </mxGeometry>
        </mxCell>
        <mxCell id="XvAhgUPR3jtQ_a_zYUv5-180" value="RemoteLocationCoorrdinatesRepository" style="html=1;whiteSpace=wrap;" vertex="1" parent="1">
          <mxGeometry x="1530" y="360" width="240" height="50" as="geometry" />
        </mxCell>
        <mxCell id="XvAhgUPR3jtQ_a_zYUv5-181" value="" style="endArrow=block;dashed=1;endFill=0;endSize=12;html=1;rounded=0;" edge="1" parent="1" source="XvAhgUPR3jtQ_a_zYUv5-180" target="XvAhgUPR3jtQ_a_zYUv5-166">
          <mxGeometry width="160" relative="1" as="geometry">
            <mxPoint x="1988" y="370" as="sourcePoint" />
            <mxPoint x="1871" y="610" as="targetPoint" />
          </mxGeometry>
        </mxCell>
        <mxCell id="XvAhgUPR3jtQ_a_zYUv5-182" value="IWeatherAIRecognizer" style="html=1;whiteSpace=wrap;" vertex="1" parent="1">
          <mxGeometry x="1901" y="570" width="178" height="50" as="geometry" />
        </mxCell>
        <mxCell id="XvAhgUPR3jtQ_a_zYUv5-183" value="Use" style="endArrow=open;endSize=12;dashed=1;html=1;rounded=0;" edge="1" parent="1" source="XvAhgUPR3jtQ_a_zYUv5-126" target="XvAhgUPR3jtQ_a_zYUv5-182">
          <mxGeometry width="160" relative="1" as="geometry">
            <mxPoint x="1807" y="875" as="sourcePoint" />
            <mxPoint x="1783" y="590" as="targetPoint" />
          </mxGeometry>
        </mxCell>
        <mxCell id="XvAhgUPR3jtQ_a_zYUv5-184" value="Use" style="endArrow=open;endSize=12;dashed=1;html=1;rounded=0;" edge="1" parent="1" source="XvAhgUPR3jtQ_a_zYUv5-125" target="XvAhgUPR3jtQ_a_zYUv5-182">
          <mxGeometry width="160" relative="1" as="geometry">
            <mxPoint x="1974" y="840" as="sourcePoint" />
            <mxPoint x="1997" y="630" as="targetPoint" />
          </mxGeometry>
        </mxCell>
        <mxCell id="XvAhgUPR3jtQ_a_zYUv5-185" value="TensorFlowLiteWeatherAIRecognizer" style="html=1;whiteSpace=wrap;" vertex="1" parent="1">
          <mxGeometry x="1900" y="400" width="210" height="50" as="geometry" />
        </mxCell>
        <mxCell id="XvAhgUPR3jtQ_a_zYUv5-186" value="" style="endArrow=block;dashed=1;endFill=0;endSize=12;html=1;rounded=0;" edge="1" parent="1" source="XvAhgUPR3jtQ_a_zYUv5-185" target="XvAhgUPR3jtQ_a_zYUv5-182">
          <mxGeometry width="160" relative="1" as="geometry">
            <mxPoint x="1941" y="360" as="sourcePoint" />
            <mxPoint x="1800" y="540" as="targetPoint" />
          </mxGeometry>
        </mxCell>
      </root>
    </mxGraphModel>
  </diagram>
</mxfile>
